# xmcd
#
# Track frame offsets:
#	150
#	16391
#	31935
#	50231
#	65487
#	84904
#	101463
#	119293
#
# Disc length: 1815 seconds
#
# Revision: 0
# Processed by: cddbd v1.5.1PL0 Copyright (c) Steve Scherf et al.
# Submitted via: dBpowerAMP V4.0
#
DISCID=60071508
DTITLE=Kenny Chesney - Somewhere Beautiful
DYEAR=1900
DGENRE=
TTITLE0=On The Coast Of Somewhere Beautiful
TTITLE1=She's Got It All
TTITLE2=Simple Things
TTITLE3=The Good Stuff
TTITLE4=Grandpa Told Me So
TTITLE5=For The Fisrt Time
TTITLE6=Young
TTITLE7=I can't Go There
EXTD=
EXTT0=
EXTT1=
EXTT2=
EXTT3=
EXTT4=
EXTT5=
EXTT6=
EXTT7=
PLAYORDER=
